<?xml version="1.0" standalone="no"?>
<!DOCTYPE svg PUBLIC "-//W3C//DTD SVG 20010904//EN"
 "http://www.w3.org/TR/2001/REC-SVG-20010904/DTD/svg10.dtd">
<svg version="1.0" xmlns="http://www.w3.org/2000/svg"
 width="324.000000pt" height="297.000000pt" viewBox="0 0 324.000000 297.000000"
 preserveAspectRatio="xMidYMid meet">

<g transform="translate(0.000000,297.000000) scale(0.100000,-0.100000)"
fill="#000000" stroke="none">
<path d="M1612 2228 c-23 -97 -87 -161 -192 -188 l-45 -12 60 -19 c33 -10 76
-32 97 -49 41 -34 88 -119 89 -164 1 -26 4 -21 19 26 32 103 90 160 193 188
l61 17 -43 7 c-92 14 -175 84 -200 168 -24 81 -25 82 -39 26z m56 -159 l42
-46 -40 -41 -41 -40 -44 43 -45 43 24 16 c14 8 33 29 42 45 10 17 19 29 19 28
1 -1 20 -23 43 -48z"/>
<path d="M2471 2270 c-1 -8 -12 -38 -25 -66 -27 -58 -70 -93 -135 -109 l-44
-12 49 -12 c62 -16 122 -76 146 -146 11 -33 16 -42 17 -26 2 37 48 114 84 138
18 12 50 26 72 31 l40 8 -51 17 c-71 24 -126 86 -145 162 -4 17 -7 23 -8 15z
m36 -223 l-34 -35 -35 35 -35 35 35 33 36 32 33 -32 33 -32 -33 -36z"/>
<path d="M641 2150 c-2 -36 -38 -110 -69 -144 -33 -35 -116 -76 -157 -77 -23
0 -14 -5 38 -23 49 -16 80 -35 109 -64 29 -29 48 -60 64 -109 14 -42 23 -59
24 -43 1 35 36 110 68 144 33 35 116 76 157 77 23 0 14 6 -40 24 -90 30 -146
87 -174 178 -12 40 -20 53 -20 37z m48 -191 l41 -41 -42 -41 -41 -42 -41 40
-41 40 40 42 c22 23 41 42 41 43 1 0 20 -18 43 -41z"/>
<path d="M1179 1922 c-79 -46 -232 -197 -278 -274 -114 -195 -132 -448 -48
-658 94 -232 287 -398 537 -461 116 -30 288 -23 405 15 104 33 216 99 291 172
57 55 128 143 121 150 -2 2 -39 -9 -82 -23 -71 -24 -95 -27 -220 -27 -131 0
-146 2 -232 32 -207 71 -373 218 -459 405 -88 194 -86 456 6 640 17 33 29 62
27 63 -2 2 -32 -13 -68 -34z m-114 -558 c69 -281 292 -522 568 -614 45 -15
107 -31 137 -34 30 -4 68 -10 84 -13 l30 -5 -25 -14 c-13 -8 -60 -25 -104 -40
-100 -33 -253 -37 -354 -10 -184 48 -335 171 -419 340 -50 101 -67 176 -66
301 1 127 30 233 86 320 l33 50 6 -106 c4 -58 15 -136 24 -175z"/>
<path d="M2021 1593 c-2 -36 -37 -121 -66 -158 -32 -43 -103 -85 -169 -100
-49 -12 -50 -13 -21 -19 137 -32 223 -112 241 -223 8 -53 20 -55 27 -5 4 20
21 62 39 92 40 66 116 116 192 127 l51 6 -45 12 c-138 36 -208 114 -243 270
-4 18 -5 18 -6 -2z m52 -230 l45 -42 -48 -48 -48 -48 -46 48 -46 49 42 43 c24
24 46 42 49 41 4 0 27 -20 52 -43z"/>
</g>
</svg>
