<?xml version="1.0" standalone="no"?>
<!DOCTYPE svg PUBLIC "-//W3C//DTD SVG 20010904//EN"
 "http://www.w3.org/TR/2001/REC-SVG-20010904/DTD/svg10.dtd">
<svg version="1.0" xmlns="http://www.w3.org/2000/svg"
 width="353.000000pt" height="313.000000pt" viewBox="0 0 353.000000 313.000000"
 preserveAspectRatio="xMidYMid meet">

<g transform="translate(0.000000,313.000000) scale(0.100000,-0.100000)"
fill="#000000" stroke="none">
<path d="M1660 2541 c-13 -26 -13 -276 0 -302 7 -12 21 -19 40 -19 19 0 33 7
40 19 13 26 13 276 0 302 -7 12 -21 19 -40 19 -19 0 -33 -7 -40 -19z"/>
<path d="M2016 2478 c-8 -13 -36 -77 -61 -143 -38 -97 -44 -123 -36 -142 12
-25 52 -31 69 -10 6 6 33 70 61 141 49 121 51 130 36 152 -20 30 -50 31 -69 2z"/>
<path d="M1282 2468 c-19 -19 -15 -35 47 -173 54 -122 59 -130 85 -130 17 0
34 8 42 20 12 18 7 35 -42 145 -30 69 -58 131 -61 138 -7 15 -55 16 -71 0z"/>
<path d="M993 2273 c-7 -2 -13 -17 -13 -32 0 -20 24 -50 104 -130 92 -91 107
-103 130 -97 17 4 28 15 32 32 6 23 -6 38 -97 130 -99 99 -120 112 -156 97z"/>
<path d="M2251 2176 c-91 -92 -103 -107 -97 -130 4 -17 15 -28 32 -32 23 -6
38 6 130 97 92 91 104 108 102 134 -3 25 -8 30 -33 33 -26 2 -43 -10 -134
-102z"/>
<path d="M1568 2094 c-189 -45 -353 -208 -402 -400 -88 -341 180 -684 534
-684 301 0 550 249 550 550 0 143 -52 269 -155 379 -135 143 -336 202 -527
155z m237 -89 c95 -25 145 -54 216 -124 119 -120 164 -272 124 -426 -61 -231
-288 -386 -512 -348 -267 46 -443 306 -378 558 23 88 51 140 111 204 114 124
284 176 439 136z"/>
<path d="M2436 1932 c-71 -32 -131 -63 -134 -70 -7 -23 8 -60 27 -65 11 -3 73
19 143 50 68 30 129 57 136 60 15 7 16 55 0 71 -19 19 -35 15 -172 -46z"/>
<path d="M777 1942 c-41 -45 -21 -63 150 -128 95 -36 129 -45 141 -37 22 13
27 56 9 71 -14 12 -261 112 -276 112 -4 0 -15 -8 -24 -18z"/>
<path d="M718 1599 c-25 -14 -24 -65 1 -79 26 -13 276 -13 302 0 26 14 26 66
0 80 -25 13 -280 13 -303 -1z"/>
<path d="M2378 1599 c-25 -14 -24 -65 1 -79 26 -13 276 -13 302 0 12 7 19 21
19 40 0 19 -7 33 -19 40 -25 13 -280 13 -303 -1z"/>
<path d="M2322 1338 c-19 -19 -14 -56 11 -72 12 -8 77 -36 145 -62 118 -46
123 -46 142 -29 26 24 25 51 -2 69 -29 19 -252 106 -270 106 -8 0 -19 -5 -26
-12z"/>
<path d="M930 1274 c-69 -30 -131 -58 -138 -61 -18 -8 -11 -64 10 -77 13 -8
47 3 155 50 131 57 138 61 138 88 0 17 -8 34 -20 42 -18 12 -35 7 -145 -42z"/>
<path d="M1082 1007 c-77 -78 -102 -109 -102 -129 0 -26 16 -38 48 -38 22 0
222 200 222 222 0 9 -7 24 -16 32 -8 9 -23 16 -32 16 -10 0 -63 -46 -120 -103z"/>
<path d="M2166 1094 c-9 -8 -16 -23 -16 -32 0 -9 46 -63 102 -119 79 -79 109
-103 129 -103 27 0 39 15 39 48 0 22 -200 222 -222 222 -9 0 -24 -7 -32 -16z"/>
<path d="M1954 953 c-25 -18 -19 -47 36 -173 61 -142 79 -162 119 -134 11 8
21 23 20 32 0 9 -26 76 -57 147 -50 113 -60 130 -82 133 -14 1 -30 -1 -36 -5z"/>
<path d="M1413 938 c-6 -7 -34 -71 -62 -142 -49 -122 -51 -129 -36 -153 26
-39 56 -27 85 33 52 107 94 235 83 252 -13 21 -56 27 -70 10z"/>
<path d="M1660 881 c-13 -26 -13 -276 0 -302 14 -26 66 -26 80 0 13 26 13 276
0 302 -7 12 -21 19 -40 19 -19 0 -33 -7 -40 -19z"/>
</g>
</svg>
