<svg xmlns="http://www.w3.org/2000/svg" width="256" height="256" viewBox="0 0 100 100"><rect width="100" height="100" rx="20" fill="#7d6ee7"></rect><path fill="#fff" d="M22.33 69.25L22.33 30.90Q23.69 30.85 24.82 30.81Q25.94 30.77 27.00 30.76Q28.06 30.75 29.11 30.75Q30.16 30.75 31.38 30.75L31.38 30.75Q35.44 30.75 38.26 31.62Q41.08 32.48 42.83 34.06Q44.59 35.63 45.39 37.82Q46.18 40.00 46.18 42.64L46.18 42.64Q46.18 45.35 45.35 47.64Q44.52 49.94 42.72 51.61Q40.93 53.28 38.10 54.24Q35.27 55.19 31.24 55.19L31.24 55.19Q30.55 55.19 29.83 55.16Q29.11 55.14 28.33 55.09L28.33 55.09L28.33 69.25L22.33 69.25ZM28.33 35.73L28.33 49.91Q29.26 50.04 30.09 50.10Q30.92 50.16 31.70 50.16L31.70 50.16Q34.12 50.16 35.73 49.57Q37.34 48.99 38.32 48.00Q39.29 47.01 39.71 45.68Q40.12 44.35 40.12 42.83L40.12 42.83Q40.12 41.22 39.65 39.89Q39.17 38.56 38.09 37.61Q37.00 36.66 35.22 36.15Q33.44 35.63 30.85 35.63L30.85 35.63Q30.26 35.63 29.63 35.66Q28.99 35.68 28.33 35.73L28.33 35.73ZM52.70 69.25L52.70 30.90L58.68 30.90L58.68 46.03L71.69 46.03L71.69 30.90L77.67 30.90L77.67 69.25L71.69 69.25L71.69 50.84L58.68 50.84L58.68 69.25L52.70 69.25Z"></path></svg>